<svg t="1732690074336" class="icon" viewBox="0 0 1024 1024" version="1.1" xmlns="http://www.w3.org/2000/svg" p-id="9499" width="200" height="200"><path d="M502.9 260.4c-48.2 0-87.2-38.9-87.2-87.2v-86C415.7 39 454.6 0 502.9 0c48.2 0 87.2 38.9 87.2 87.2v86c0 48.2-38.9 87.2-87.2 87.2zM330.9 404.5c-24.4 28.5-66.8 31.4-95.3 7.6L115.3 308.6c-28.5-24.4-31.4-66.8-7.6-95.3 24.4-28.5 66.8-31.4 95.3-7.6l120.3 103.4c28.5 24.5 31.4 66.9 7.6 95.4zM668.5 404.5c24.4 28.5 66.8 31.4 95.3 7.6l120.3-103.4c28.5-24.4 31.4-66.8 7.6-95.3-24.4-28.5-66.8-31.4-95.3-7.6L676.1 309.2c-28.5 24.4-32 66.8-7.6 95.3zM330.9 803.7c-24.4-28.5-66.8-31.4-95.3-7.6L115.3 899.6c-28.5 24.4-31.4 66.8-7.6 95.3 24.4 28.5 66.8 31.4 95.3 7.6l120.3-103.4c28.5-24.5 31.4-66.9 7.6-95.4zM668.5 803.7c24.4-28.5 66.8-31.4 95.3-7.6l120.3 103.4c28.5 24.4 31.4 66.8 7.6 95.3-24.4 28.5-66.8 31.4-95.3 7.6L676.1 899.1c-28.5-24.5-32-66.9-7.6-95.4z" fill="#13853C" p-id="9500"></path><path d="M355.3 515.5V691L507 778.2 658.7 691V515.5L507 428.3zM507 967.6l-79.6 45.9c24.4 7 49.4 10.5 75.6 10.5 27.9 0 54.6-4.1 80.8-12.2L507 967.6zM809.2 781.7L664.5 698l-151.7 87.8v174.9l82.5 47.7c94.8-33.2 172.6-116.9 213.9-226.7zM199.6 785.7v3.5c43 108.1 122 190 217.4 221.4l86-49.4V786.3l-151.7-87.8-151.7 87.2zM429.1 192.4l76.7 44.2 75-43c-25-7.6-51.1-11-77.9-11-25-0.1-50 3.4-73.8 9.8zM591.8 197l-79 45.9v174.9l151.7 87.8 144.1-83.1C766.2 312.7 687.7 229.6 591.8 197zM502.9 417.9v-175l-82.5-47.7C323.3 225.5 243.1 308 199.6 417.9v0.6l151.7 87.8 151.6-88.4zM165.3 603.2c0 62.2 11 121.5 30.2 174.3L346 691V516.1l-150.5-86.6c-19.8 52.9-30.2 111.6-30.2 173.7zM841.2 603.2c0-61-10.5-118.6-29.1-170.9l-143.5 83.1V691l144.1 83.1c18-52.3 28.5-109.8 28.5-170.9z" fill="#36A73E" p-id="9501"></path><path d="M456.4 81.4m-13.9 0a13.9 13.9 0 1 0 27.8 0 13.9 13.9 0 1 0-27.8 0Z" p-id="9502"></path><path d="M548.8 81.4m-13.9 0a13.9 13.9 0 1 0 27.8 0 13.9 13.9 0 1 0-27.8 0Z" p-id="9503"></path></svg>